# xmcd
#
# Track frame offsets:
#	150
#	20971
#	37750
#	53555
#	67583
#	78610
#	89269
#	104071
#	121896
#	139715
#	153389
#	160515
#	172259
#	185069
#	201899
#	214709
#	226077
#	242035
#	253228
#	274376
#	303898
#	331545
#
# Disc length: 4730 seconds
# Revision: 0
# Processed by: cddbd v1.5.1PL0 Copyright (c) Steve Scherf et al.
# Submitted via: cdrLabel 7.1
#
DISCID=2c127816
DTITLE=A VILG LEGSZEBB KRTNCAI 1.
DYEAR=1900
DGENRE=
TTITLE0=Enam Mythos /grg
TTITLE1=Tread Gentjy /amerikai
TTITLE2=A vilg krl /holland
TTITLE3=Shalom /izraeli
TTITLE4=A nyrfa /litvn
TTITLE5=Khaniotiko /grg
TTITLE6=Dirlanda /grg
TTITLE7=Mank tnca /r
TTITLE8=Iperotikus /grg
TTITLE9=Jaku /dlamerikai
TTITLE10=des Gergelem /magyar
TTITLE11=Bor s fge /izraeli
TTITLE12=Hora Agadati /izraeli
TTITLE13=Menj az ablakomtl /breton
TTITLE14=Ambi Dageb /rmny
TTITLE15=Cignytnc /cigny
TTITLE16=Azarre /spanyol
TTITLE17=Himnusz /Vangelis
TTITLE18=Raby rzsja /francia
TTITLE19=Eno Sagrado /spanyol
TTITLE20=lmod /afrikai
TTITLE21=Laudate Domine /latin
EXTD=
EXTT0=
EXTT1=
EXTT2=
EXTT3=
EXTT4=
EXTT5=
EXTT6=
EXTT7=
EXTT8=
EXTT9=
EXTT10=
EXTT11=
EXTT12=
EXTT13=
EXTT14=
EXTT15=
EXTT16=
EXTT17=
EXTT18=
EXTT19=
EXTT20=
EXTT21=
PLAYORDER=
